<svg width="13" height="11" viewBox="0 0 13 11" fill="none" xmlns="http://www.w3.org/2000/svg">
<path d="M4.64348 6.81141H4.644C4.64443 6.81141 4.64486 6.81133 4.6453 6.81133H10.6831C10.8317 6.81133 10.9624 6.71272 11.0033 6.5698L12.3354 1.90753C12.3641 1.80702 12.3439 1.69896 12.2811 1.61553C12.2181 1.5321 12.1197 1.48302 12.0152 1.48302H3.87545L3.63739 0.411718C3.60349 0.259345 3.46837 0.15094 3.31227 0.15094H1.31415C1.13021 0.15094 0.981133 0.300018 0.981133 0.483959C0.981133 0.6679 1.13021 0.816979 1.31415 0.816979H3.04516C3.08731 1.00682 4.18436 5.94365 4.2475 6.22767C3.89358 6.38152 3.64529 6.7344 3.64529 7.14435C3.64529 7.69521 4.09348 8.1434 4.64434 8.1434H10.6831C10.867 8.1434 11.0161 7.99433 11.0161 7.81038C11.0161 7.62644 10.867 7.47736 10.6831 7.47736H4.64434C4.46075 7.47736 4.31133 7.32794 4.31133 7.14435C4.31133 6.96101 4.46023 6.81185 4.64348 6.81141ZM11.5737 2.14906L10.4319 6.14529H4.91145L4.0234 2.14906H11.5737Z" fill="white"/>
<path d="M4.31131 9.14249C4.31131 9.69336 4.7595 10.1415 5.31037 10.1415C5.86124 10.1415 6.30943 9.69336 6.30943 9.14249C6.30943 8.59162 5.86124 8.14343 5.31037 8.14343C4.7595 8.14343 4.31131 8.59162 4.31131 9.14249ZM5.31037 8.80947C5.49396 8.80947 5.64339 8.9589 5.64339 9.14249C5.64339 9.32608 5.49396 9.47551 5.31037 9.47551C5.12678 9.47551 4.97735 9.32608 4.97735 9.14249C4.97735 8.9589 5.12678 8.80947 5.31037 8.80947Z" fill="white"/>
<path d="M9.01799 9.14249C9.01799 9.69336 9.46618 10.1415 10.017 10.1415C10.5679 10.1415 11.0161 9.69336 11.0161 9.14249C11.0161 8.59162 10.5679 8.14343 10.017 8.14343C9.46618 8.14343 9.01799 8.59162 9.01799 9.14249ZM10.017 8.80947C10.2006 8.80947 10.3501 8.9589 10.3501 9.14249C10.3501 9.32608 10.2006 9.47551 10.017 9.47551C9.83345 9.47551 9.68403 9.32608 9.68403 9.14249C9.68403 8.9589 9.83345 8.80947 10.017 8.80947Z" fill="white"/>
</svg>
