<svg width="15" height="15" viewBox="0 0 15 15" fill="none" xmlns="http://www.w3.org/2000/svg">
<path d="M7.5 8.32498C7.95748 8.32498 8.32501 7.95373 8.32501 7.49997C8.32501 7.04621 7.95752 6.67496 7.5 6.67496C7.04624 6.67496 6.67499 7.04621 6.67499 7.49997C6.67499 7.95373 7.04627 8.32498 7.5 8.32498Z" fill="#8E99AF"/>
<path d="M7.49998 0C3.35626 0 0 3.35626 0 7.49998C0 11.64 3.35626 15 7.49998 15C11.6437 15 15 11.64 15 7.49998C15 3.35626 11.6437 0 7.49998 0ZM9.14248 9.14248L2.99999 12L5.85749 5.85749L12 2.99999L9.14248 9.14248Z" fill="#8E99AF"/>
</svg>
