<svg width="15" height="16" viewBox="0 0 15 16" fill="none" xmlns="http://www.w3.org/2000/svg">
<path d="M7.03125 0C4.70503 0 2.8125 1.89253 2.8125 4.21875C2.8125 6.54497 4.70503 8.4375 7.03125 8.4375C9.35747 8.4375 11.25 6.54497 11.25 4.21875C11.25 1.89253 9.35747 0 7.03125 0ZM7.03125 7.5C5.22197 7.5 3.75 6.02803 3.75 4.21875C3.75 2.40947 5.22197 0.9375 7.03125 0.9375C8.84053 0.9375 10.3125 2.40947 10.3125 4.21875C10.3125 6.02803 8.84053 7.5 7.03125 7.5Z" fill="#8E99AF"/>
<path d="M12.2802 11.1936C11.1252 10.0208 9.59403 9.375 7.96875 9.375H6.09375C4.4685 9.375 2.93731 10.0208 1.78231 11.1936C0.632969 12.3606 0 13.901 0 15.5312C0 15.7901 0.209875 16 0.46875 16H13.5938C13.8526 16 14.0625 15.7901 14.0625 15.5312C14.0625 13.901 13.4295 12.3606 12.2802 11.1936ZM0.958125 15.0625C1.19297 12.4036 3.40659 10.3125 6.09375 10.3125H7.96875C10.6559 10.3125 12.8695 12.4036 13.1044 15.0625H0.958125Z" fill="#8E99AF"/>
</svg>
